<?xml version="1.0" encoding="UTF-8" standalone="no"?>
<svg
   xmlns:dc="http://purl.org/dc/elements/1.1/"
   xmlns:cc="http://creativecommons.org/ns#"
   xmlns:rdf="http://www.w3.org/1999/02/22-rdf-syntax-ns#"
   xmlns:svg="http://www.w3.org/2000/svg"
   xmlns="http://www.w3.org/2000/svg"
   xmlns:sodipodi="http://sodipodi.sourceforge.net/DTD/sodipodi-0.dtd"
   xmlns:inkscape="http://www.inkscape.org/namespaces/inkscape"
   width="48"
   height="48"
   viewBox="0 0 38.4 38.4"
   version="1.1"
   id="svg6"
   sodipodi:docname="lock-off.svg"
   inkscape:version="1.0.1 (3bc2e813f5, 2020-09-07)">
  <metadata
     id="metadata12">
    <rdf:RDF>
      <cc:Work
         rdf:about="">
        <dc:format>image/svg+xml</dc:format>
        <dc:type
           rdf:resource="http://purl.org/dc/dcmitype/StillImage" />
      </cc:Work>
    </rdf:RDF>
  </metadata>
  <defs
     id="defs10" />
  <sodipodi:namedview
     pagecolor="#ffffff"
     bordercolor="#666666"
     borderopacity="1"
     objecttolerance="10"
     gridtolerance="10"
     guidetolerance="10"
     inkscape:pageopacity="0"
     inkscape:pageshadow="2"
     inkscape:window-width="1920"
     inkscape:window-height="1015"
     id="namedview8"
     showgrid="false"
     inkscape:zoom="8.7395833"
     inkscape:cx="5.8736466"
     inkscape:cy="22.663864"
     inkscape:window-x="1366"
     inkscape:window-y="37"
     inkscape:window-maximized="1"
     inkscape:current-layer="svg6" />
  <path
     d="M 2.8635605,16.421073 C 3.3360184,15.917019 4.5276953,16.058456 4.5276953,16.058456 H 24.560519 c 0,0 1.191676,-0.141437 1.664134,0.362617 0.472458,0.504056 0.340052,1.775479 0.340052,1.775479 V 35.299836 H 2.5250153 V 18.196552 c 0,0 -0.1324089,-1.271423 0.3400489,-1.775479 z"
     style="color:#bebebe;fill:#0066b3;fill-opacity:0.5;stroke:#0066b3;stroke-width:1.50465;stroke-linecap:butt;stroke-linejoin:round;stroke-opacity:1;paint-order:normal"
     id="path14" />
  <path
     d="m 25.744107,1.595822 a 9.6297184,9.6297184 0 0 0 -9.629718,9.629718 v 4.81486 h 4.814859 v -4.81486 a 4.814859,4.814859 0 0 1 4.814859,-4.814859 4.814859,4.814859 0 0 1 4.814859,4.814859 v 4.81486 h 4.814859 V 11.22554 A 9.6297184,9.6297184 0 0 0 25.744107,1.595822"
     style="opacity:1;fill:#0066b3;fill-opacity:0.5;stroke:#0066b3;stroke-width:1.5048;stroke-opacity:1;stroke-miterlimit:4;stroke-dasharray:none;stroke-linejoin:round"
     id="path16" />
</svg>
